<svg xmlns="http://www.w3.org/2000/svg" xmlns:xlink="http://www.w3.org/1999/xlink" width="265" zoomAndPan="magnify" viewBox="0 0 198.75 199.499995" height="266" preserveAspectRatio="xMidYMid meet" version="1.0"><defs><clipPath id="8898a48f93"><path d="M 0.125 0 L 197.628906 0 L 197.628906 199 L 0.125 199 Z M 0.125 0 " clip-rule="nonzero"/></clipPath><clipPath id="7315e33b0a"><path d="M 60 36.039062 L 158 36.039062 L 158 161 L 60 161 Z M 60 36.039062 " clip-rule="nonzero"/></clipPath><clipPath id="55a0224279"><path d="M 59.722656 36.039062 L 159 36.039062 L 159 161.726562 L 59.722656 161.726562 Z M 59.722656 36.039062 " clip-rule="nonzero"/></clipPath><clipPath id="465ded244f"><path d="M 55.191406 70.15625 L 108 70.15625 L 108 123 L 55.191406 123 Z M 55.191406 70.15625 " clip-rule="nonzero"/></clipPath><clipPath id="cbc435f19f"><path d="M 97 96 L 124.019531 96 L 124.019531 123.273438 L 97 123.273438 Z M 97 96 " clip-rule="nonzero"/></clipPath></defs><g clip-path="url(#8898a48f93)"><path fill="#012f74" d="M 102.121094 1.519531 L 97.09375 1.945312 L 92.0625 2.371094 L 93.792969 2.492188 L 102.121094 1.519531 M 113.800781 12.351562 L 113.210938 12.390625 L 113.332031 12.417969 L 113.800781 12.351562 M 111.035156 12.539062 L 104.511719 12.988281 L 106.976562 13.308594 L 111.515625 12.671875 L 111.035156 12.539062 M 95.351562 14.890625 L 95.542969 14.914062 L 94.855469 15.011719 L 95.351562 14.890625 M 87.375 13.480469 L 81.328125 15.339844 L 83.074219 14.070312 L 87.375 13.480469 M 88.957031 16.582031 L 88.851562 16.582031 L 88.746094 16.585938 L 88.011719 16.835938 C 88.328125 16.75 88.644531 16.664062 88.957031 16.582031 M 105.332031 16.183594 L 112.027344 17.054688 L 112.320312 17.375 L 105.339844 16.292969 L 98.335938 16.945312 L 91.253906 16.527344 L 105.332031 16.183594 M 119.960938 18.175781 L 120.046875 18.207031 L 120.136719 18.238281 L 120.097656 18.234375 C 120.050781 18.214844 120.007812 18.195312 119.960938 18.175781 M 99.304688 0.132812 L 118.503906 4.660156 L 128.636719 6.125 L 140.398438 11.519531 L 154.527344 18.777344 L 137.105469 8.222656 L 131.859375 6.03125 L 114.917969 0.910156 L 99.304688 0.132812 M 120.859375 18.574219 L 121.5625 18.742188 L 121.890625 18.855469 L 121.285156 18.761719 L 120.859375 18.574219 M 113.332031 12.417969 L 111.515625 12.671875 L 135.746094 19.25 L 134.769531 18.699219 L 121.144531 13.992188 L 113.332031 12.417969 M 94.628906 14.796875 L 95.316406 14.886719 L 94.816406 15.015625 L 93.933594 15.140625 L 83.328125 17.824219 L 94.644531 15.0625 L 88.957031 16.582031 L 90.714844 16.539062 L 84.824219 18.207031 L 83.789062 18.304688 L 82.886719 18.714844 L 82.269531 18.769531 L 88.011719 16.832031 L 81.273438 18.632812 L 80.921875 18.890625 L 76.09375 19.324219 L 77.257812 18.808594 L 94.628906 14.796875 M 80.078125 19.507812 L 80.023438 19.542969 L 79.972656 19.582031 C 79.71875 19.652344 79.46875 19.726562 79.214844 19.796875 C 79.5 19.699219 79.789062 19.601562 80.078125 19.507812 M 135.746094 19.25 L 136.785156 19.835938 L 136.980469 19.585938 L 135.746094 19.25 M 100.5625 4.714844 L 79.480469 10.414062 L 61.320312 18.910156 L 59.984375 19.867188 L 61.839844 19.121094 L 62.683594 18.511719 L 81.394531 10.070312 L 100.34375 5.140625 L 100.5625 4.714844 M 70.609375 12.148438 L 65.429688 12.757812 L 51.15625 20.375 L 67.523438 12.867188 L 53.976562 19.742188 L 70.609375 12.148438 M 66.320312 18.917969 L 65.554688 19.730469 L 64.789062 20.539062 L 61.128906 21.722656 C 62.859375 20.789062 64.589844 19.851562 66.320312 18.917969 M 74.371094 21.429688 L 71.042969 22.824219 L 71.746094 22.3125 L 74.371094 21.429688 M 132.808594 22.714844 L 133.230469 22.925781 L 133.648438 23.140625 C 133.898438 23.183594 134.148438 23.230469 134.398438 23.277344 C 133.867188 23.089844 133.339844 22.902344 132.808594 22.714844 M 139.476562 24.089844 L 142.863281 24.839844 L 139.785156 24.269531 L 139.476562 24.089844 M 67.050781 25.726562 L 66.796875 25.914062 L 66.542969 26.097656 C 66.8125 25.976562 67.078125 25.855469 67.347656 25.734375 C 67.25 25.734375 67.148438 25.730469 67.050781 25.726562 M 127.777344 21.511719 L 132.101562 22.464844 L 132.808594 22.714844 L 132.476562 22.546875 L 135.4375 23.203125 L 135.972656 23.566406 L 134.398438 23.277344 L 136.769531 24.117188 L 140.066406 26.375 L 138.03125 25.347656 L 136.644531 24.394531 L 137.265625 24.964844 L 133.648438 23.140625 L 128.601562 22.214844 L 127.171875 21.515625 L 127.777344 21.511719 M 162.089844 26.859375 L 162.109375 26.875 L 162.128906 26.886719 L 162.128906 26.890625 L 162.113281 26.871094 L 162.089844 26.859375 M 156.507812 26.097656 L 156.339844 26.117188 L 156.175781 26.132812 L 158.402344 27.886719 C 157.769531 27.289062 157.140625 26.695312 156.507812 26.097656 M 154.949219 26.261719 L 156.035156 27.257812 L 157.125 28.253906 C 156.300781 27.597656 155.472656 26.945312 154.648438 26.292969 L 154.949219 26.261719 M 78.648438 20.546875 L 78.367188 20.753906 L 67.347656 25.734375 L 70.46875 25.796875 L 70.117188 26.65625 L 64.019531 27.933594 L 66.542969 26.097656 L 63.59375 27.429688 L 62.789062 28.191406 L 62.714844 28.207031 L 62.308594 28.425781 L 65.6875 25.699219 L 67.050781 25.730469 L 70.53125 23.195312 L 78.648438 20.546875 M 56.390625 23.027344 L 54.171875 24.027344 C 51.828125 25.699219 49.488281 27.375 47.148438 29.050781 L 51.625 26.445312 L 56.390625 23.027344 M 47.148438 29.050781 L 44.796875 30.421875 L 44.1875 31.046875 L 44.214844 31.414062 L 45.207031 30.4375 L 47.148438 29.050781 M 147.472656 18.664062 L 163.933594 31.90625 L 164.039062 31.929688 L 156.675781 23.457031 L 147.472656 18.664062 M 59.84375 30.972656 L 57.90625 32.800781 C 57.6875 32.902344 57.472656 33.007812 57.253906 33.109375 L 57.921875 32.367188 L 59.84375 30.972656 M 44.214844 31.414062 L 42.84375 32.765625 L 41.472656 34.113281 C 42.414062 33.542969 43.355469 32.972656 44.296875 32.402344 C 44.269531 32.074219 44.242188 31.746094 44.214844 31.414062 M 45.929688 29.257812 L 41.734375 32.476562 L 39.359375 35.390625 L 40.796875 34.519531 L 44.1875 31.046875 L 44.164062 30.789062 L 44.796875 30.421875 L 45.929688 29.257812 M 49.792969 33.507812 L 46.894531 36.28125 L 48.484375 34.433594 L 49.792969 33.507812 M 162.128906 26.886719 L 168.242188 33.675781 L 174.351562 40.460938 C 172.457031 37.65625 170.558594 34.847656 168.664062 32.039062 L 162.128906 26.886719 M 138.910156 39.59375 L 139.296875 39.800781 L 139.679688 40.003906 L 140.992188 41.410156 L 140.371094 41.015625 L 138.910156 39.59375 M 45.816406 22.789062 L 40.058594 26.496094 L 26.847656 41.867188 L 37.417969 29.90625 L 47.070312 23.628906 L 45.816406 22.789062 M 156.640625 42.625 L 157.21875 43.070312 L 156.679688 42.691406 L 156.640625 42.625 M 171.742188 40.789062 L 173.503906 43.179688 L 175.265625 45.574219 L 174.667969 44.152344 L 171.742188 40.789062 M 162.90625 36.910156 L 163.460938 38.882812 L 163.441406 38.964844 L 162.976562 38.492188 L 165.203125 43.78125 L 167.210938 45.621094 L 162.90625 36.910156 M 39.40625 46.050781 L 39.214844 46.382812 L 39.195312 46.394531 L 39.40625 46.050781 M 142.707031 36.445312 L 148.039062 40.992188 L 153.371094 45.542969 L 153.976562 46.527344 L 145.125 39.164062 L 142.707031 36.445312 M 161.277344 34.1875 L 164.449219 38.808594 L 167.617188 43.433594 L 169.835938 46.632812 C 168.792969 44.152344 167.75 41.675781 166.707031 39.199219 L 161.277344 34.1875 M 168.972656 41.675781 L 170.789062 44.375 L 172.605469 47.070312 L 171.285156 44.835938 L 168.972656 41.675781 M 167.355469 48.339844 L 167.363281 48.355469 C 167.390625 48.378906 167.417969 48.40625 167.445312 48.433594 L 167.355469 48.339844 M 154.605469 48.824219 L 154.652344 48.902344 L 154.699219 48.976562 L 154.621094 48.835938 L 154.605469 48.824219 M 52.859375 43.632812 L 52.195312 43.96875 C 50.148438 45.785156 48.101562 47.605469 46.054688 49.421875 C 47.898438 48.039062 49.742188 46.65625 51.585938 45.273438 L 52.859375 43.632812 M 106.726562 53.414062 L 106.410156 53.46875 L 106.097656 53.519531 L 106.210938 53.433594 C 106.382812 53.429688 106.554688 53.421875 106.726562 53.414062 M 113.699219 53.152344 L 112.324219 53.742188 L 110.941406 53.257812 L 113.699219 53.152344 M 94.773438 54.351562 L 92.046875 55.84375 L 89.921875 56.195312 L 90.824219 55.015625 L 94.773438 54.351562 M 186.851562 42.625 L 192.265625 57.976562 C 192.011719 56.84375 191.757812 55.710938 191.503906 54.578125 L 186.851562 42.625 M 164.332031 26.339844 L 173.871094 37.550781 L 179.429688 48.1875 L 183.089844 56.207031 L 184.441406 58.042969 L 184.507812 58.230469 L 183.710938 53.828125 L 175.738281 39.710938 L 164.332031 26.339844 M 85.9375 58.140625 L 85.03125 59.292969 L 84.980469 59.332031 L 83.25 60.941406 L 85.9375 58.140625 M 54.222656 41.878906 L 52.859375 43.632812 L 55.640625 42.230469 L 51.585938 45.273438 L 49.503906 47.949219 L 48.128906 51.054688 L 40.972656 60.003906 L 38.179688 65.148438 L 39.03125 62.511719 L 47.792969 49.953125 L 38.039062 63.085938 L 44.957031 50.804688 L 50.09375 44.246094 L 54.222656 41.878906 M 180.328125 58.132812 L 180.625 59.515625 L 183.554688 67.769531 L 182.640625 63.121094 L 180.730469 58.570312 L 180.328125 58.132812 M 152.78125 45.820312 L 154.507812 47.394531 L 161.683594 59.082031 L 162.824219 62.34375 L 154.699219 48.976562 L 164.453125 67.003906 L 164.96875 68.476562 L 160.582031 62.292969 L 154.480469 49.261719 L 152.671875 47.480469 L 154.605469 48.824219 L 152.78125 45.820312 M 183.554688 67.769531 L 183.613281 68.066406 L 183.671875 68.367188 L 184.273438 69.789062 C 184.035156 69.113281 183.796875 68.441406 183.554688 67.769531 M 181.324219 62.800781 L 181.765625 64.878906 L 182.207031 66.953125 L 184.101562 70.542969 C 183.957031 69.816406 183.816406 69.09375 183.671875 68.367188 L 181.324219 62.800781 M 37.707031 63.679688 L 36.839844 66.441406 L 35.976562 69.203125 C 35.671875 69.761719 35.367188 70.320312 35.066406 70.878906 L 36.171875 66.402344 L 37.707031 63.679688 M 28.257812 70.683594 L 28.195312 70.929688 L 28.132812 71.171875 L 27.945312 71.511719 L 28.257812 70.683594 M 184.273438 69.789062 L 184.640625 70.824219 L 185.011719 71.859375 C 184.960938 71.628906 184.910156 71.398438 184.859375 71.171875 L 184.273438 69.789062 M 185.460938 74.835938 L 185.421875 75.753906 L 185.378906 76.671875 L 185.601562 77.234375 C 185.554688 76.433594 185.507812 75.636719 185.460938 74.835938 M 74.003906 77.871094 L 73.960938 78.007812 L 73.914062 78.140625 C 73.910156 78.109375 73.90625 78.078125 73.902344 78.046875 C 73.9375 77.988281 73.972656 77.929688 74.003906 77.871094 M 76.265625 74.082031 L 74.429688 81.492188 L 74.175781 79.828125 L 75.929688 74.644531 L 76.265625 74.082031 M 74.238281 74.003906 L 73.125 78.335938 L 72.015625 82.671875 L 73.347656 75.425781 L 74.238281 74.003906 M 185.601562 77.234375 L 185.691406 78.746094 L 185.777344 80.257812 L 187.25 83.808594 L 186.261719 78.898438 L 185.601562 77.234375 M 166.355469 73.804688 L 166.996094 76.847656 L 167.640625 79.890625 C 167.453125 79.398438 167.269531 78.90625 167.082031 78.414062 L 167.726562 85.117188 C 167.269531 81.347656 166.8125 77.578125 166.355469 73.804688 M 167.644531 70.351562 L 169.34375 75.746094 L 171.046875 81.144531 L 171.753906 85.710938 L 168.648438 74.359375 L 167.644531 70.351562 M 185.273438 79.039062 L 185.167969 81.417969 L 185.148438 83.25 L 186.179688 87.109375 L 185.777344 80.257812 L 185.273438 79.039062 M 8.304688 68.078125 L 8.25 69.71875 L 8.195312 71.363281 C 8.316406 72.375 8.4375 73.386719 8.558594 74.398438 C 6.8125 79.292969 5.070312 84.183594 3.324219 89.078125 L 8.304688 68.078125 M 192.265625 57.976562 L 196.007812 74.609375 L 197.910156 91.785156 L 196.546875 72.15625 L 194.925781 67.109375 L 194.660156 64.761719 L 192.265625 57.976562 M 99.050781 92.210938 L 99.035156 92.5 L 99.023438 92.554688 C 99.03125 92.441406 99.042969 92.328125 99.050781 92.210938 M 169.453125 93.070312 L 169.546875 93.882812 L 169.476562 94.449219 L 169.339844 93.710938 L 169.453125 93.070312 M 106.191406 93.769531 L 105.757812 94.964844 L 105.324219 96.164062 L 105.292969 95.3125 C 105.59375 94.796875 105.890625 94.28125 106.191406 93.769531 M 169.152344 94.75 L 169.207031 96.738281 L 169.171875 97.042969 C 169.113281 96.5625 169.054688 96.082031 169 95.601562 L 169.152344 94.75 M 192.207031 89.367188 L 192.316406 93.523438 L 192.429688 97.683594 L 192.722656 94.148438 C 192.550781 92.554688 192.378906 90.960938 192.207031 89.367188 M 172.605469 91.238281 L 173.101562 94.425781 L 173.59375 97.617188 C 173.546875 98.230469 173.5 98.839844 173.453125 99.449219 L 172.605469 91.238281 M 106.539062 99.058594 L 106.019531 99.957031 L 105.5 100.851562 L 105.453125 99.589844 C 105.816406 99.414062 106.175781 99.238281 106.539062 99.058594 M 142.5 100.519531 L 142.511719 100.566406 L 142.527344 100.613281 L 142.359375 101.042969 C 142.40625 100.867188 142.453125 100.695312 142.5 100.519531 M 168.738281 97.046875 L 169.074219 97.875 L 168.640625 101.566406 C 168.582031 100.941406 168.523438 100.320312 168.464844 99.695312 C 168.457031 99.363281 168.449219 99.03125 168.441406 98.699219 L 168.738281 97.046875 M 169.96875 100.070312 L 170.21875 100.683594 L 170.25 101.117188 L 169.90625 103.085938 L 169.792969 102.164062 L 170.011719 101.324219 C 169.996094 100.90625 169.980469 100.488281 169.96875 100.070312 M 104.023438 99.148438 L 104.820312 99.664062 L 105.023438 101.667969 L 103.28125 104.667969 L 104.023438 99.148438 M 190.9375 99.664062 L 190.75 100.878906 L 190.558594 102.09375 C 190.394531 104.058594 190.226562 106.019531 190.0625 107.984375 C 190.425781 106.835938 190.792969 105.691406 191.15625 104.542969 L 190.9375 99.664062 M 166.390625 109.113281 L 166.390625 109.125 L 166.386719 109.136719 C 166.382812 109.152344 166.378906 109.167969 166.371094 109.183594 C 166.378906 109.160156 166.386719 109.136719 166.390625 109.113281 M 169.40625 103.667969 L 169.53125 108.054688 L 169.65625 112.4375 C 169.433594 110.054688 169.210938 107.671875 168.988281 105.292969 C 169.128906 104.75 169.269531 104.210938 169.40625 103.667969 M 68.214844 118.097656 L 68.386719 118.746094 L 68.554688 119.398438 C 68.492188 119.351562 68.429688 119.308594 68.367188 119.261719 C 68.316406 118.875 68.265625 118.484375 68.214844 118.097656 M 70.617188 120.371094 L 70.9375 120.832031 L 71.257812 121.289062 L 70.71875 120.914062 C 70.683594 120.734375 70.652344 120.554688 70.617188 120.371094 M 194.9375 96.378906 L 193.464844 99.253906 L 192.667969 106.574219 L 192.761719 110.09375 L 192.050781 112.25 L 191.714844 115.328125 L 190.792969 122.066406 L 193.105469 115.175781 L 194.496094 113.601562 L 194.9375 96.378906 M 9.304688 88.265625 L 7.460938 100.621094 L 7.601562 105.34375 L 11.824219 122.683594 L 10.089844 112.601562 L 8.507812 101.777344 L 9.304688 88.265625 M 65.523438 119.855469 L 66.335938 120.875 L 66.980469 122.851562 L 66.382812 122.441406 L 65.523438 119.855469 M 69.003906 124.207031 L 69.035156 124.246094 L 69.0625 124.28125 L 69.007812 124.246094 L 69.003906 124.207031 M 68.753906 122.277344 L 69.488281 122.945312 L 70.011719 124.933594 L 69.347656 124.476562 L 68.972656 123.949219 L 68.753906 122.277344 M 72.945312 126.089844 L 73.113281 126.242188 L 73.28125 126.398438 L 73.742188 127.496094 L 73.527344 127.347656 L 72.945312 126.089844 M 28.851562 127.488281 L 28.867188 127.523438 L 28.871094 127.550781 L 28.851562 127.488281 M 8.964844 118.464844 L 13.863281 129.386719 C 13.886719 129.410156 13.90625 129.433594 13.929688 129.457031 L 8.964844 118.464844 M 182.605469 117.230469 L 181.636719 119.632812 L 178.488281 126.289062 L 177.488281 129.632812 L 178.824219 130.011719 L 182.605469 117.230469 M 158.957031 125.808594 L 158.292969 127.328125 L 157.628906 128.851562 L 155.714844 132.25 C 156.792969 130.101562 157.875 127.957031 158.957031 125.808594 M 192.429688 97.683594 L 191.003906 114.929688 L 187.832031 123.300781 L 184.320312 133.453125 L 185.738281 131.332031 L 192.050781 112.25 L 192.667969 106.574219 L 192.429688 97.683594 M 29.351562 125.859375 L 31.648438 130.148438 L 33.941406 134.4375 C 33.460938 133.824219 32.980469 133.214844 32.5 132.601562 L 29.351562 125.859375 M 69.382812 134.996094 L 73.273438 138.621094 L 72.539062 138.554688 L 70.292969 136.492188 L 69.382812 134.996094 M 68.316406 128.261719 L 68.816406 128.503906 L 70.152344 132.613281 L 74.996094 138.773438 L 74.542969 138.734375 L 70.277344 134.171875 L 68.316406 128.261719 M 74.113281 137.226562 L 75 138.097656 L 75.5625 138.824219 L 75.296875 138.800781 L 74.113281 137.226562 M 86.058594 138.800781 L 87.6875 139.660156 L 86.726562 139.8125 L 86.058594 138.800781 M 76.292969 139.820312 L 76.316406 139.824219 L 76.335938 139.828125 L 76.371094 139.871094 L 76.292969 139.820312 M 184.320312 133.449219 L 183.296875 134.984375 L 182.269531 136.523438 C 182.085938 138.011719 181.898438 139.5 181.714844 140.992188 C 182.582031 138.476562 183.453125 135.964844 184.320312 133.449219 M 89.0625 140.789062 L 89.59375 141.429688 L 89.292969 141.449219 L 87.5625 141.078125 L 87.554688 141.070312 L 89.0625 140.789062 M 33.945312 138.769531 L 34.523438 139.5 L 35.78125 142.265625 L 33.945312 138.769531 M 173.191406 130.492188 L 166.167969 142.511719 L 165.457031 142.859375 L 166.78125 140.183594 L 173.191406 130.492188 M 79.546875 144.464844 L 80.882812 145.707031 L 81.917969 147.046875 L 81.734375 146.988281 L 80.796875 146.128906 L 79.546875 144.464844 M 172.125 147.207031 L 172.03125 147.351562 L 171.933594 147.5 C 171.957031 147.480469 171.980469 147.460938 172 147.441406 L 172.125 147.207031 M 40.148438 147.007812 L 40.484375 147.238281 L 40.816406 147.46875 L 40.890625 147.5625 C 40.644531 147.378906 40.394531 147.191406 40.148438 147.007812 M 164.808594 150.394531 L 164.097656 151.210938 L 163.996094 151.265625 L 163.933594 151.152344 L 164.808594 150.394531 M 180.875 130.675781 L 172.125 147.207031 L 178.011719 138.207031 L 175.484375 144.433594 L 172 147.441406 L 170.410156 150.449219 L 169.4375 151.320312 L 171.933594 147.5 L 171.019531 148.289062 L 180.875 130.675781 M 157.582031 153.710938 L 157.222656 154.179688 L 156.859375 154.648438 C 156.839844 154.65625 156.820312 154.667969 156.804688 154.675781 L 157.582031 153.710938 M 50.859375 155.015625 L 52.109375 155.640625 L 52.277344 155.824219 L 51.105469 155.199219 L 50.859375 155.015625 M 158.054688 156.21875 L 156.96875 157.292969 L 155.882812 158.363281 C 155.710938 158.417969 155.542969 158.476562 155.371094 158.53125 C 156.265625 157.761719 157.160156 156.992188 158.054688 156.21875 M 53.097656 158.355469 L 56.5 160.476562 L 56.589844 160.578125 L 53.113281 158.375 L 53.097656 158.355469 M 135.097656 161.625 L 127.773438 165.457031 L 130.503906 163.84375 L 135.097656 161.625 M 168.253906 146.464844 L 166.1875 148.820312 L 167.046875 147.335938 L 163.625 150.59375 L 162.980469 149.441406 L 162.773438 149.632812 L 162.65625 150.820312 L 159.5625 154.464844 L 155.246094 158.574219 L 153.066406 159.300781 L 152.679688 159.773438 L 153.03125 159.3125 L 151.519531 159.816406 L 148.339844 161.902344 L 143.222656 165.992188 L 150.46875 162.761719 L 154.503906 159.28125 L 153.371094 160.359375 L 161.921875 153.691406 L 158.433594 157.675781 L 160.53125 156.238281 L 157.386719 160.011719 L 164.5 151.679688 L 165.640625 150.800781 L 168.496094 147.148438 L 168.253906 146.464844 M 196.550781 125.546875 L 188.019531 144.617188 L 183.742188 151.574219 L 183.445312 155.359375 L 172.597656 166.621094 L 175.578125 165.171875 L 187.363281 152.078125 L 193.976562 141.894531 L 191.105469 144.925781 L 196.550781 125.546875 M 140.183594 164.5 L 139.6875 164.972656 L 136.308594 166.667969 L 135.550781 166.71875 L 140.183594 164.5 M 24.335938 157.511719 L 25.289062 160.769531 L 33.058594 167.671875 C 32.867188 167.21875 32.675781 166.769531 32.484375 166.316406 C 29.769531 163.382812 27.050781 160.449219 24.335938 157.511719 M 121.046875 167.175781 L 123.59375 167.886719 L 122.027344 168.539062 L 120.742188 168.207031 L 119.195312 168.226562 L 118.59375 168.039062 L 121.046875 167.175781 M 65.46875 170.3125 L 65.515625 170.332031 L 65.5625 170.355469 L 65.5625 170.351562 L 65.46875 170.3125 M 130.144531 169.757812 L 126.859375 171.402344 L 123.203125 171.359375 L 124.460938 170.925781 L 130.144531 169.757812 M 114.222656 170.210938 L 116.898438 170.550781 L 113.253906 171.441406 L 109.636719 171.195312 L 111.953125 170.378906 L 114.222656 170.210938 M 171.320312 160.550781 L 170.148438 161.128906 L 168.976562 161.710938 L 155.96875 173.757812 C 161.085938 169.355469 166.203125 164.953125 171.320312 160.550781 M 196.277344 145.183594 L 187.816406 156.566406 L 170.945312 173.847656 L 184.449219 161.957031 L 196.277344 145.183594 M 114.757812 174.261719 L 114.792969 174.261719 L 114.824219 174.265625 C 114.792969 174.265625 114.757812 174.269531 114.722656 174.273438 L 114.757812 174.261719 M 170.945312 173.847656 L 170.21875 174.480469 C 170.296875 174.4375 170.375 174.394531 170.453125 174.347656 C 170.617188 174.179688 170.78125 174.015625 170.945312 173.847656 M 13.929688 129.457031 L 18.015625 138.5 L 32.15625 157.027344 L 43.167969 167.347656 L 52.847656 173.664062 L 56.902344 174.886719 L 49.871094 170.105469 L 43.871094 164.578125 L 38.332031 161.191406 L 22.65625 142.910156 L 14.621094 130.144531 L 13.929688 129.457031 M 64.605469 169.246094 L 65.5625 170.351562 L 69.527344 172.085938 L 69.378906 172.042969 L 65.5625 170.355469 L 65.605469 170.40625 L 68.179688 171.695312 L 66.234375 171.128906 L 66.851562 171.839844 L 75.722656 175.25 L 77.035156 175.429688 L 74.308594 174.222656 L 74.394531 174.210938 L 77.242188 175.457031 L 78.011719 175.5625 L 75.335938 174.097656 L 76.109375 174 L 74.085938 173.410156 L 72.226562 172.394531 L 64.605469 169.246094 M 87.664062 176.855469 L 87.777344 176.890625 L 87.777344 176.894531 L 87.550781 176.863281 C 87.589844 176.859375 87.625 176.859375 87.664062 176.855469 M 87.828125 176.851562 L 102.691406 177.304688 L 103.65625 177.402344 L 94.40625 177.792969 L 88.640625 177.011719 L 87.789062 176.851562 L 87.828125 176.851562 M 48.230469 160.855469 L 63.800781 170.421875 L 66.234375 171.128906 L 65.605469 170.40625 L 57.183594 166.183594 L 64.605469 169.246094 L 62.902344 167.285156 L 72.226562 172.394531 L 76.109375 174 L 84.539062 176.453125 L 78.011719 175.5625 L 80.085938 176.699219 L 77.242188 175.457031 L 77.03125 175.429688 L 82.621094 177.902344 L 75.722656 175.25 L 72.171875 174.765625 L 55.621094 166.449219 L 48.230469 160.855469 M 146.035156 173.566406 L 137.917969 177.300781 L 137.507812 178.085938 L 130.789062 179.148438 L 132.980469 177.667969 L 138.132812 176.125 L 139.203125 175.5 L 146.035156 173.566406 M 156.261719 177.042969 L 151.148438 179.148438 L 146.035156 181.257812 L 149.347656 180.316406 C 151.652344 179.226562 153.957031 178.132812 156.261719 177.042969 M 84.359375 178.570312 L 106.894531 182.929688 L 113.546875 183.894531 L 108.4375 184.605469 L 90.582031 180.960938 L 84.359375 178.570312 M 170.21875 174.480469 L 161.039062 179.75 L 151.863281 185.015625 L 165.484375 178.652344 L 170.21875 174.480469 M 92.589844 7.484375 L 78.949219 12.832031 C 78.546875 12.394531 72.84375 14.488281 61.839844 19.121094 L 56.390625 23.027344 L 61.246094 20.839844 C 53.308594 25.234375 48.417969 28.3125 46.566406 30.070312 L 32.007812 45.515625 L 41.472656 34.113281 L 36.367188 39.066406 L 39.359375 35.390625 L 36.945312 36.148438 L 49.4375 25.65625 L 45.929688 29.257812 L 50.738281 25.570312 C 52.234375 25.414062 55.316406 23.511719 59.984375 19.867188 L 55.785156 21.554688 L 57.546875 19.097656 L 48.402344 25.117188 L 34.402344 38.230469 L 23.445312 53.449219 L 13.976562 76.957031 L 20.351562 57.390625 L 19.285156 57.214844 L 16.578125 62.566406 L 12.488281 77.542969 L 9.757812 96.535156 L 11.832031 116.855469 L 20.359375 135.410156 L 32.050781 152.285156 L 46.917969 166.164062 L 64.648438 176.882812 L 84.332031 183.25 L 104.363281 185.039062 C 98.292969 185.398438 91.164062 185.304688 82.96875 184.757812 L 104.597656 186.234375 L 122.851562 184.761719 L 126.015625 183.140625 L 151.269531 174.851562 L 168.976562 161.710938 L 182.933594 148.78125 L 190.183594 133.664062 L 173.554688 154.066406 L 158.753906 167.394531 L 154.804688 168.117188 L 165.84375 160.460938 L 173.773438 152.886719 C 174.628906 150.960938 174.753906 150.019531 174.148438 150.0625 L 172.015625 151.863281 L 182.269531 136.523438 L 188.816406 118.96875 L 190.710938 110.449219 L 189.796875 111.105469 L 190.0625 107.984375 L 189.242188 110.554688 L 190.558594 102.09375 L 190.878906 98.328125 L 190.9375 99.664062 L 191.652344 95.082031 C 191.101562 91.863281 190.902344 86.414062 191.058594 78.726562 L 192.207031 89.367188 L 191.945312 79.707031 L 190.773438 76.105469 L 190.808594 76.425781 L 184.507812 58.230469 L 184.832031 60.015625 L 183.089844 56.207031 L 175.265625 45.574219 L 180.730469 58.570312 L 182.027344 59.988281 L 184.859375 71.171875 L 190.074219 82.648438 L 190.347656 86.472656 L 188.960938 89.285156 L 188.039062 101.03125 C 188.226562 94.746094 187.605469 90.105469 186.179688 87.109375 L 186.554688 93.519531 L 183.9375 112.726562 L 182.605469 117.230469 L 186.117188 108.515625 L 179.925781 127.941406 L 181.375 125.738281 L 187.917969 102.558594 L 187.667969 105.789062 L 181.988281 125.910156 L 171.859375 145.632812 L 174.390625 139.609375 L 168.496094 147.148438 L 168.917969 148.328125 L 165.640625 150.800781 L 160.59375 157.253906 C 157.753906 159.984375 156.195312 161.078125 155.921875 160.542969 L 158.433594 157.675781 L 144.84375 166.980469 L 139.421875 168.585938 L 152.40625 158.652344 C 153.375 158.335938 154.140625 157.824219 154.695312 157.117188 L 153.066406 159.300781 L 155.242188 156.609375 L 162.769531 149.632812 L 162.820312 149.148438 L 162.980469 149.441406 L 169.113281 143.761719 L 167.046875 147.335938 C 167.492188 147.332031 168.65625 146.171875 170.527344 143.867188 L 177.117188 129.910156 L 175.238281 133.160156 C 176.90625 131.570312 179.570312 124 183.230469 110.449219 L 184.945312 99.589844 L 185.148438 83.25 L 182.394531 72.976562 C 183.503906 74.761719 184.464844 76.785156 185.273438 79.039062 L 185.378906 76.671875 L 178.34375 58.886719 L 175.035156 55.808594 L 166.996094 44.761719 L 168.519531 50.605469 L 166.972656 47.984375 C 166.804688 47.769531 166.933594 47.886719 167.355469 48.339844 C 167.027344 48.113281 166.308594 46.59375 165.203125 43.78125 C 162.4375 41.8125 159.3125 38.371094 155.824219 33.457031 L 145.769531 25.605469 L 146.21875 25.164062 L 136.785156 19.835938 L 136.097656 20.722656 L 132.277344 19.921875 L 113.8125 14.808594 L 112.398438 14.015625 L 106.976562 13.308594 L 95.378906 14.882812 L 104.511719 12.988281 L 97.574219 12.082031 L 105.402344 11.011719 C 110.308594 12.589844 112.910156 13.050781 113.210938 12.390625 L 105.972656 10.933594 L 108.558594 10.578125 L 132.910156 16.230469 L 155.585938 28.933594 L 161.277344 34.1875 L 160.765625 32.097656 L 168.972656 41.675781 L 164.425781 34.933594 L 166.613281 36.933594 C 169.355469 42.199219 172.839844 47.46875 177.070312 52.738281 L 181.324219 62.800781 L 180.625 59.515625 L 178.4375 53.367188 L 167.722656 36.164062 L 171.742188 40.789062 L 165.253906 32.199219 C 163.683594 31.519531 163.636719 31.839844 165.113281 33.164062 L 158.402344 27.886719 L 165.523438 34.601562 L 162.855469 32.789062 L 154.992188 26.257812 L 156.175781 26.132812 L 147.765625 19.523438 L 123.363281 8.984375 L 92.589844 7.484375 M 146.035156 181.257812 L 127.128906 186.625 L 120.402344 188.488281 L 120.359375 188.976562 L 137.039062 186.550781 L 132.953125 186.648438 L 146.035156 181.257812 M 74.992188 182.945312 L 74.753906 183.367188 L 74.515625 183.785156 L 94.714844 189.804688 L 96.777344 189.410156 L 74.992188 182.945312 M 82.011719 1.941406 L 73.96875 2.6875 L 57.539062 9.777344 L 39.679688 20.832031 L 35.5625 22.4375 L 21.066406 39.007812 L 26.574219 31.0625 C 20.347656 38.050781 16.070312 43.507812 13.746094 47.429688 L 7.164062 64.144531 L 1.191406 87.265625 L 0.105469 111.296875 L 3.390625 120.464844 L 4.046875 119.4375 L 3.179688 113.566406 L 8.460938 127.796875 L 17.328125 143.519531 L 29.789062 160.632812 C 18.632812 146.65625 12.335938 138.261719 10.890625 135.453125 L 22.964844 153.609375 L 36.296875 167.648438 C 41.707031 171.066406 47.167969 174.824219 52.671875 178.929688 L 68.296875 185.667969 L 87.878906 190.960938 L 91.871094 191.316406 L 79.839844 188.351562 L 58.808594 180.996094 L 39.253906 168.179688 L 24.15625 152.625 L 22.261719 149.523438 L 38.078125 166.261719 L 54.296875 177.074219 L 41.71875 168.230469 L 26.511719 153.75 L 18.375 142.007812 L 8.132812 122.761719 L 4.480469 98.332031 L 7.390625 81.414062 L 10.949219 67.441406 L 21.460938 44.984375 L 25.46875 40.164062 L 14.136719 60.703125 L 9.222656 75.097656 L 15.574219 61.894531 L 14.238281 62.875 L 22.789062 45.226562 L 39.589844 25.71875 L 55.089844 16.707031 L 74.007812 8.046875 L 56.851562 14.507812 L 72.65625 7.824219 L 91.039062 4.132812 L 110.261719 5.230469 L 111.105469 4.652344 L 120.980469 6.839844 L 111.855469 3.769531 L 93.792969 2.492188 C 79.4375 3.972656 71.226562 5.121094 69.164062 5.945312 L 82.011719 1.941406 M 140.152344 191.179688 L 138.019531 191.53125 L 114.789062 194.609375 L 93.878906 195.644531 L 119.140625 195.097656 L 133.480469 192.609375 L 139.472656 191.863281 L 140.152344 191.179688 M 130.53125 196.078125 L 106.703125 198.4375 L 118.390625 198.023438 L 123.082031 197.765625 L 130.53125 196.078125 M 106.703125 198.4375 L 106.292969 198.453125 L 105.878906 198.464844 L 106.195312 198.488281 C 106.363281 198.46875 106.535156 198.453125 106.703125 198.4375 M 72.4375 195.511719 L 95.226562 198.84375 L 105.878906 198.464844 L 83.960938 196.996094 L 72.4375 195.511719 " fill-opacity="1" fill-rule="nonzero"/></g><g clip-path="url(#7315e33b0a)"><path fill="#ffde59" d="M 96.054688 36.875 C 83.488281 36.875 71.1875 40.6875 60.859375 47.871094 C 88.9375 39.28125 118.652344 55.09375 127.242188 83.171875 C 135.832031 111.246094 120.054688 140.964844 91.976562 149.554688 C 81.851562 152.664062 71.019531 152.664062 60.859375 149.554688 C 71.1875 156.738281 83.488281 160.585938 96.054688 160.550781 C 130.21875 160.550781 157.894531 132.875 157.894531 98.714844 C 157.894531 64.550781 130.21875 36.875 96.054688 36.875 Z M 96.054688 36.875 " fill-opacity="1" fill-rule="nonzero"/></g><g clip-path="url(#55a0224279)"><path fill="#ffde59" d="M 95.957031 161.386719 C 83.1875 161.386719 70.886719 157.542969 60.359375 150.222656 C 60.023438 149.988281 59.890625 149.554688 60.089844 149.1875 C 60.257812 148.816406 60.691406 148.617188 61.09375 148.75 C 71.121094 151.828125 81.683594 151.828125 91.710938 148.75 C 105.082031 144.671875 116.042969 135.613281 122.597656 123.28125 C 129.148438 110.945312 130.519531 96.773438 126.441406 83.40625 C 122.363281 70.035156 113.304688 59.070312 100.96875 52.519531 C 88.636719 45.933594 74.464844 44.597656 61.09375 48.675781 C 60.691406 48.808594 60.289062 48.609375 60.089844 48.242188 C 59.921875 47.871094 60.023438 47.4375 60.359375 47.203125 C 70.886719 39.882812 83.1875 36.039062 95.957031 36.039062 C 95.988281 36.039062 96.023438 36.039062 96.023438 36.039062 C 130.585938 36.039062 158.695312 64.152344 158.695312 98.714844 C 158.695312 133.273438 130.617188 161.386719 96.054688 161.386719 C 96.023438 161.386719 95.988281 161.386719 95.957031 161.386719 Z M 65.738281 151.660156 C 74.929688 156.941406 85.292969 159.714844 95.988281 159.714844 C 96.023438 159.714844 96.054688 159.714844 96.054688 159.714844 C 129.683594 159.714844 157.058594 132.339844 157.058594 98.714844 C 157.058594 65.085938 129.683594 37.710938 96.054688 37.710938 C 96.054688 37.710938 95.988281 37.710938 95.988281 37.710938 C 85.292969 37.710938 74.929688 40.484375 65.738281 45.765625 C 77.972656 43.261719 90.574219 45.097656 101.773438 51.015625 C 114.507812 57.765625 123.832031 69.097656 128.078125 82.902344 C 132.289062 96.707031 130.886719 111.316406 124.132812 124.050781 C 117.382812 136.785156 106.050781 146.109375 92.246094 150.355469 C 83.554688 152.996094 74.496094 153.429688 65.738281 151.660156 Z M 65.738281 151.660156 " fill-opacity="1" fill-rule="nonzero"/></g><g clip-path="url(#465ded244f)"><path fill="#ffde59" d="M 82.082031 84.253906 C 82.160156 84.988281 82.300781 85.710938 82.503906 86.421875 C 82.707031 87.128906 82.96875 87.816406 83.289062 88.484375 C 83.605469 89.148438 83.980469 89.78125 84.40625 90.386719 C 84.832031 90.988281 85.308594 91.550781 85.828125 92.070312 C 86.351562 92.59375 86.914062 93.066406 87.515625 93.492188 C 88.117188 93.921875 88.75 94.292969 89.417969 94.613281 C 90.082031 94.929688 90.769531 95.191406 91.480469 95.394531 C 92.1875 95.597656 92.910156 95.738281 93.644531 95.820312 C 98.316406 96.285156 102.996094 96.496094 107.691406 96.457031 C 102.996094 96.421875 98.316406 96.632812 93.644531 97.097656 C 92.910156 97.179688 92.1875 97.320312 91.480469 97.523438 C 90.769531 97.726562 90.082031 97.988281 89.417969 98.304688 C 88.75 98.625 88.117188 98.996094 87.515625 99.425781 C 86.914062 99.851562 86.351562 100.324219 85.828125 100.847656 C 85.308594 101.367188 84.832031 101.929688 84.40625 102.53125 C 83.980469 103.136719 83.605469 103.769531 83.289062 104.433594 C 82.96875 105.101562 82.707031 105.789062 82.503906 106.496094 C 82.300781 107.207031 82.160156 107.929688 82.082031 108.664062 C 81.617188 113.332031 81.402344 118.015625 81.441406 122.710938 C 81.480469 118.015625 81.265625 113.332031 80.800781 108.664062 C 80.71875 107.929688 80.578125 107.207031 80.375 106.496094 C 80.175781 105.789062 79.914062 105.101562 79.59375 104.433594 C 79.273438 103.769531 78.902344 103.136719 78.476562 102.53125 C 78.050781 101.929688 77.574219 101.367188 77.054688 100.847656 C 76.53125 100.324219 75.96875 99.851562 75.367188 99.421875 C 74.765625 98.996094 74.132812 98.625 73.464844 98.304688 C 72.800781 97.984375 72.113281 97.726562 71.402344 97.523438 C 70.691406 97.320312 69.972656 97.179688 69.238281 97.097656 C 64.566406 96.632812 59.882812 96.421875 55.191406 96.457031 C 59.882812 96.496094 64.566406 96.285156 69.238281 95.816406 C 69.972656 95.738281 70.691406 95.597656 71.402344 95.394531 C 72.113281 95.191406 72.800781 94.929688 73.464844 94.613281 C 74.128906 94.292969 74.765625 93.921875 75.367188 93.492188 C 75.96875 93.066406 76.53125 92.59375 77.054688 92.070312 C 77.574219 91.550781 78.050781 90.988281 78.476562 90.382812 C 78.902344 89.78125 79.273438 89.148438 79.59375 88.484375 C 79.914062 87.816406 80.175781 87.128906 80.375 86.421875 C 80.578125 85.710938 80.71875 84.988281 80.800781 84.253906 C 81.265625 79.585938 81.480469 74.902344 81.441406 70.207031 C 81.402344 74.902344 81.617188 79.585938 82.082031 84.253906 Z M 82.082031 84.253906 " fill-opacity="1" fill-rule="nonzero"/></g><g clip-path="url(#cbc435f19f)"><path fill="#ffde59" d="M 111.386719 103.566406 C 111.46875 104.316406 111.671875 105.027344 112 105.707031 C 112.324219 106.386719 112.753906 106.988281 113.285156 107.523438 C 113.816406 108.054688 114.421875 108.484375 115.101562 108.808594 C 115.777344 109.132812 116.492188 109.335938 117.238281 109.417969 C 119.601562 109.652344 121.972656 109.761719 124.347656 109.742188 C 121.972656 109.722656 119.601562 109.832031 117.238281 110.066406 C 116.492188 110.148438 115.777344 110.351562 115.101562 110.675781 C 114.421875 111.003906 113.816406 111.429688 113.285156 111.960938 C 112.753906 112.496094 112.324219 113.101562 112 113.777344 C 111.671875 114.457031 111.46875 115.171875 111.386719 115.917969 C 111.152344 118.28125 111.042969 120.652344 111.0625 123.027344 C 111.082031 120.652344 110.976562 118.28125 110.738281 115.917969 C 110.660156 115.171875 110.453125 114.457031 110.128906 113.777344 C 109.804688 113.101562 109.375 112.496094 108.84375 111.960938 C 108.3125 111.429688 107.707031 111.003906 107.027344 110.675781 C 106.347656 110.351562 105.636719 110.148438 104.886719 110.066406 C 102.523438 109.832031 100.15625 109.722656 97.78125 109.742188 C 100.15625 109.761719 102.523438 109.652344 104.886719 109.417969 C 105.636719 109.335938 106.347656 109.132812 107.027344 108.808594 C 107.707031 108.484375 108.3125 108.054688 108.84375 107.523438 C 109.375 106.988281 109.804688 106.386719 110.128906 105.707031 C 110.453125 105.027344 110.660156 104.316406 110.738281 103.566406 C 110.976562 101.203125 111.085938 98.832031 111.066406 96.457031 C 111.046875 98.832031 111.152344 101.203125 111.386719 103.566406 Z M 111.386719 103.566406 " fill-opacity="1" fill-rule="nonzero"/></g><path fill="#ffde59" d="M 101.402344 77.351562 C 101.453125 77.808594 101.578125 78.246094 101.777344 78.660156 C 101.972656 79.074219 102.234375 79.441406 102.5625 79.769531 C 102.886719 80.09375 103.253906 80.355469 103.667969 80.554688 C 104.082031 80.75 104.519531 80.875 104.976562 80.925781 C 106.417969 81.070312 107.867188 81.136719 109.316406 81.125 C 107.867188 81.113281 106.417969 81.175781 104.976562 81.320312 C 104.519531 81.371094 104.082031 81.496094 103.667969 81.695312 C 103.253906 81.890625 102.886719 82.152344 102.5625 82.480469 C 102.234375 82.804688 101.972656 83.171875 101.777344 83.585938 C 101.578125 84.003906 101.453125 84.4375 101.402344 84.894531 C 101.257812 86.335938 101.191406 87.785156 101.207031 89.234375 C 101.21875 87.785156 101.152344 86.335938 101.007812 84.894531 C 100.957031 84.4375 100.832031 84.003906 100.632812 83.585938 C 100.4375 83.171875 100.175781 82.804688 99.847656 82.480469 C 99.523438 82.152344 99.15625 81.890625 98.742188 81.695312 C 98.328125 81.496094 97.890625 81.371094 97.433594 81.320312 C 95.992188 81.175781 94.542969 81.113281 93.09375 81.125 C 94.542969 81.136719 95.992188 81.070312 97.433594 80.925781 C 97.890625 80.875 98.328125 80.75 98.742188 80.550781 C 99.15625 80.355469 99.523438 80.09375 99.847656 79.765625 C 100.171875 79.441406 100.433594 79.074219 100.632812 78.660156 C 100.832031 78.246094 100.957031 77.808594 101.003906 77.351562 C 101.148438 75.910156 101.214844 74.460938 101.207031 73.011719 C 101.191406 74.460938 101.257812 75.910156 101.402344 77.351562 Z M 101.402344 77.351562 " fill-opacity="1" fill-rule="nonzero"/></svg>